<mxfile host="app.diagrams.net" modified="2023-02-06T16:45:52.126Z" agent="5.0 (Windows NT 10.0; Win64; x64) AppleWebKit/537.36 (KHTML, like Gecko) Chrome/109.0.0.0 Safari/537.36" etag="M89tRtA4O1WEwWfE48qh" version="20.8.15" type="github">
  <diagram name="Page-1" id="mx47MbW_1yw50iI5vwp3">
    <mxGraphModel dx="1401" dy="774" grid="1" gridSize="10" guides="0" tooltips="1" connect="1" arrows="1" fold="1" page="1" pageScale="1" pageWidth="850" pageHeight="1100" background="#ffffff" math="0" shadow="0">
      <root>
        <mxCell id="0" />
        <mxCell id="1" parent="0" />
        <mxCell id="xQ7LYl9tW4PWdYDbD922-35" value="" style="rounded=1;whiteSpace=wrap;html=1;fillColor=#dae8fc;strokeColor=#6c8ebf;" vertex="1" parent="1">
          <mxGeometry x="850" y="210" width="160" height="80" as="geometry" />
        </mxCell>
        <mxCell id="xQ7LYl9tW4PWdYDbD922-20" style="rounded=0;orthogonalLoop=1;jettySize=auto;html=1;entryX=0.5;entryY=0;entryDx=0;entryDy=0;" edge="1" parent="1" source="xQ7LYl9tW4PWdYDbD922-2" target="xQ7LYl9tW4PWdYDbD922-6">
          <mxGeometry relative="1" as="geometry" />
        </mxCell>
        <mxCell id="xQ7LYl9tW4PWdYDbD922-21" value="" style="edgeStyle=none;rounded=0;orthogonalLoop=1;jettySize=auto;html=1;entryX=0.5;entryY=0;entryDx=0;entryDy=0;" edge="1" parent="1" source="xQ7LYl9tW4PWdYDbD922-2" target="xQ7LYl9tW4PWdYDbD922-7">
          <mxGeometry relative="1" as="geometry" />
        </mxCell>
        <mxCell id="xQ7LYl9tW4PWdYDbD922-24" style="edgeStyle=none;rounded=0;orthogonalLoop=1;jettySize=auto;html=1;entryX=-0.16;entryY=0.12;entryDx=0;entryDy=0;entryPerimeter=0;" edge="1" parent="1" source="xQ7LYl9tW4PWdYDbD922-2" target="xQ7LYl9tW4PWdYDbD922-8">
          <mxGeometry relative="1" as="geometry" />
        </mxCell>
        <mxCell id="xQ7LYl9tW4PWdYDbD922-2" value="" style="verticalLabelPosition=bottom;html=1;verticalAlign=top;align=center;strokeColor=none;fillColor=#00BEF2;shape=mxgraph.azure.virtual_network;pointerEvents=1;" vertex="1" parent="1">
          <mxGeometry x="380" y="80" width="50" height="27.500000000000004" as="geometry" />
        </mxCell>
        <mxCell id="xQ7LYl9tW4PWdYDbD922-3" value="Vnet &lt;br&gt;(10.103.166.0/23)&lt;br&gt;&amp;nbsp;= 512 IPs" style="text;html=1;strokeColor=none;fillColor=none;align=center;verticalAlign=middle;whiteSpace=wrap;rounded=0;" vertex="1" parent="1">
          <mxGeometry x="400" y="77.5" width="210" height="30" as="geometry" />
        </mxCell>
        <mxCell id="xQ7LYl9tW4PWdYDbD922-4" value="" style="aspect=fixed;html=1;points=[];align=center;image;fontSize=12;image=img/lib/azure2/containers/Kubernetes_Services.svg;" vertex="1" parent="1">
          <mxGeometry x="400" y="400" width="34" height="30" as="geometry" />
        </mxCell>
        <mxCell id="xQ7LYl9tW4PWdYDbD922-34" style="edgeStyle=orthogonalEdgeStyle;rounded=0;orthogonalLoop=1;jettySize=auto;html=1;entryX=0.73;entryY=1;entryDx=0;entryDy=0;entryPerimeter=0;" edge="1" parent="1" source="xQ7LYl9tW4PWdYDbD922-5" target="xQ7LYl9tW4PWdYDbD922-25">
          <mxGeometry relative="1" as="geometry" />
        </mxCell>
        <mxCell id="xQ7LYl9tW4PWdYDbD922-5" value="" style="aspect=fixed;html=1;points=[];align=center;image;fontSize=12;image=img/lib/azure2/networking/Route_Tables.svg;" vertex="1" parent="1">
          <mxGeometry x="699.51" y="320" width="30.97" height="30" as="geometry" />
        </mxCell>
        <mxCell id="xQ7LYl9tW4PWdYDbD922-6" value="" style="shape=image;verticalLabelPosition=bottom;labelBackgroundColor=default;verticalAlign=top;aspect=fixed;imageAspect=0;image=data:image/png,iVBORw0KGgoAAAANSUhEUgAAAOEAAADhCAMAAAAJbSJIAAAApVBMVEX///84mcZ9ugAnlMMtlcTA3et/udkcksMolcSDu9p1tgB5uAAzmca32On1+vzr9flJocrT5/Hl8fdUps6Vxt7H4e2oz+Q9ncieyuFustNLosvd7fV3t9b7/fSDvdmjzVmBvQD0+eqQwt2w1Odhq89us9PQ5PHR5bKKwTCCvBa72Orl8dCYyEbt9d6mz2W114He7sbK4qKSxDy314O/3JKr0XC92pc/9UdzAAAHA0lEQVR4nO2dbVviOhCGKQTB0gUBeRNxFd1FWdeX1bP//6cdMBbJE+AimUnac525vzfNzUzSNElDpSIIgiAIgiAIgiAIgiAIgiAIgiAIgiAIgiAIgiAIgiAUyWA47BZdh5B0zxpN1bjrOF9Yn58O3a+Kz6CZrFFJ2+26zl1DqVp2G6ZWjHwKrhR/OF3XHqmPyxrjQBXjot5IcppTlwtP1OdljfNQdWNh+SWY1FwSrpNtrmvMg1WPzrL2JZgol3wbbF1ZYsXbrQiuYlh3uLS+/dvUroJVkYYpmIxcOtNp0/hxToNVksLQFGwMnK6+U4biZaBKUhjWTEGXHK0YXc2H4kmYWhI4NyPYdBRcKY7MKE5C1JLA2BR06mU+6ZVa8ZyWopreyChE3XHXksDcFPSJ4BpIVHXnOLQNxxW1DeZ0zsqpeMWRoprOhanYL4XiCZ+gHcUyKE542mBOG6J4Ufg78Q9T0L8N5rT7puJZwYoTYzxJTFENKo4KVTRHkyyCdqIWqWj+2gwpqsEoJj2ect0rAhGkdjL7Sy5IEavBk6K7y06c5ny4KnERKoIf9AtXhEczWxvcMDHKz5qxZ9FheMWaop9M4CeMq4gRDCC4ehSZg4nsZ4B77KOTBU5RzSWMl9xmfij0zE6Au5P5AhQdJ7f8mZrv4mFSVHPJO6w/kl4WTbAYxal5z1BtMAdfr78FvduaLkQw+K+KiqEXGLuZaRg0RTUwC+S0pOXOT/NucdoFRnEY8F6DuG0wByYrAy4TD8wX+hgpqoElg2CK9VpBgpZiLcxK+BLaYKQU1eCyQYhl4m8QwUjji5xxcMXb4lJUg6tb3IqwwBtf0FbkXexHwahtcFMJGKNyroSPi05RTTjFkghaqaS4FOdFDNV2AxtaFM9K+LyYodpu4JnFshKOguQUnc1mhKu/QRTpy8RXrIKzxff7h4eH++8Lb8slKlLqU7Fezmgp+usxTVutarXaaqXp42/PUpaQqH1CjewIUjqZm6d0bZfTSp8944iKlETlTNGX622/NenjjV9RA7a2yBnB1xQFV2G89lVkSlQUpLTBRWr5rRXvPYuDd3FPRc4U/WUHUCfqk2eBXVD0SVTWx8SfPYbV9MWzxC65LXKm6KoR7hGstv74ltk1F4ecE5Wzk6lU9kWQEkScm3bcPjXAwTZpjvJlbwhXQXz2LnZKGaNemILJhXc11jwdiGH12r/cOrz1O0wyQjNOFG2a+eGAYDUljMNxIfz4rUU47URrhTeHBKup7/h0XU/YDnL8whSv4e/Dht5djT22OT5NsaNRpDnmcIZ1b8PKCFYJM/9arF4KD7dDQpbOvbPUWmRSpM909o5oPgz9y22blXT7DukWH4iUPN0/pFk9Dx/9y52QNvVYM4gExdkBw/TVu1jYYO6Sox+coiJh0e55v2LL8xXRqqCzoJUDFMWZ9X6/CeGbb5l0Qdyp6zYqAna/AK8iWPUd0VBT9IM27H2i7BF4362YLjzLw488ln7F4P41iuLOppj+9SyNIUU18JZJeovaEcX03bMslhTV4JOfsl/npWo6tlpMKUoRtJYJSLuuZm/VzZRiK2394/ucYEtRzdhSJBR48/6Yau7fvIejzIL2jA31ZXHx+vd1QRhtYy/KsFnxEhUj7IDcD7ZBz8eECa4/MSSGN5iiTKu1zIlKIJCgvQ4cc9v8NpiijD+01aMWEkWMIOvPbCvGjyIIcu+YsBSjf4gUMEU1OMMYuy2iYIC7WwO4ZswPkTBFg9wbd5gmKl6igqAKlD+4DTqeYoQU1eBW9ljdDQoGvOsAX4mzGF+vRkpRDewQSLIIiigYuIPDz4LCRxFSNHzDmCZI2I/l8TERoeXHVQTBLErX1kuwvwmnGD1FNfgldzjFggQrlTYoqlEYRTNFszgpqunAmoZKQpywAoJxT47AZRvltP56HJCiKvbRGKjIftqRKZhFF7TOF1IXvFEsNEU1bTjlS51xKhYfwTWoyHi4GghGGeDv4jKUIm4iKOqgKHvYz6SIgkVFcEddeE7khMdEYSmqmfNH8aQ0Kao5xyhSFcvTBnPGvIlapjaYM+b87BFSNNCQ3pUhX6KaESz4VMgtYMbfP4plFbRm/H1Pqj4praD9YYCXYpkFV4pNsmJ5U1QD0+HuxwGAYNGn6+4APkNxPfu/3CmqmcK2a6f9YZiiJTjlegddY0Nq5jJENTvjEpxxvYepsabRcBiPGFMiZWyDOcahmI3jpzfb2z1xOdtgzvZ0eO34GHaa2xEsZxvM+VJ0ecnY2lKu+mWO4JqNotNpo6eb34V5UjIE7X5NZYly2/Xe+w8Jrrid9PtXjm+u3aSmlGqU5T87QtAeTianRR7uIwiCIAiCIAiCIAiCIAiCIAiCIAiCIAiCIAiCIAiCIPxf+BcQAlmXNqayRwAAAABJRU5ErkJggg==;" vertex="1" parent="1">
          <mxGeometry x="90" y="230" width="50" height="50" as="geometry" />
        </mxCell>
        <mxCell id="xQ7LYl9tW4PWdYDbD922-7" value="" style="shape=image;verticalLabelPosition=bottom;labelBackgroundColor=default;verticalAlign=top;aspect=fixed;imageAspect=0;image=data:image/png,iVBORw0KGgoAAAANSUhEUgAAAOEAAADhCAMAAAAJbSJIAAAApVBMVEX///84mcZ9ugAnlMMtlcTA3et/udkcksMolcSDu9p1tgB5uAAzmca32On1+vzr9flJocrT5/Hl8fdUps6Vxt7H4e2oz+Q9ncieyuFustNLosvd7fV3t9b7/fSDvdmjzVmBvQD0+eqQwt2w1Odhq89us9PQ5PHR5bKKwTCCvBa72Orl8dCYyEbt9d6mz2W114He7sbK4qKSxDy314O/3JKr0XC92pc/9UdzAAAHA0lEQVR4nO2dbVviOhCGKQTB0gUBeRNxFd1FWdeX1bP//6cdMBbJE+AimUnac525vzfNzUzSNElDpSIIgiAIgiAIgiAIgiAIgiAIgiAIgiAIgiAIgiAIgiAUyWA47BZdh5B0zxpN1bjrOF9Yn58O3a+Kz6CZrFFJ2+26zl1DqVp2G6ZWjHwKrhR/OF3XHqmPyxrjQBXjot5IcppTlwtP1OdljfNQdWNh+SWY1FwSrpNtrmvMg1WPzrL2JZgol3wbbF1ZYsXbrQiuYlh3uLS+/dvUroJVkYYpmIxcOtNp0/hxToNVksLQFGwMnK6+U4biZaBKUhjWTEGXHK0YXc2H4kmYWhI4NyPYdBRcKY7MKE5C1JLA2BR06mU+6ZVa8ZyWopreyChE3XHXksDcFPSJ4BpIVHXnOLQNxxW1DeZ0zsqpeMWRoprOhanYL4XiCZ+gHcUyKE542mBOG6J4Ufg78Q9T0L8N5rT7puJZwYoTYzxJTFENKo4KVTRHkyyCdqIWqWj+2gwpqsEoJj2ect0rAhGkdjL7Sy5IEavBk6K7y06c5ny4KnERKoIf9AtXhEczWxvcMDHKz5qxZ9FheMWaop9M4CeMq4gRDCC4ehSZg4nsZ4B77KOTBU5RzSWMl9xmfij0zE6Au5P5AhQdJ7f8mZrv4mFSVHPJO6w/kl4WTbAYxal5z1BtMAdfr78FvduaLkQw+K+KiqEXGLuZaRg0RTUwC+S0pOXOT/NucdoFRnEY8F6DuG0wByYrAy4TD8wX+hgpqoElg2CK9VpBgpZiLcxK+BLaYKQU1eCyQYhl4m8QwUjji5xxcMXb4lJUg6tb3IqwwBtf0FbkXexHwahtcFMJGKNyroSPi05RTTjFkghaqaS4FOdFDNV2AxtaFM9K+LyYodpu4JnFshKOguQUnc1mhKu/QRTpy8RXrIKzxff7h4eH++8Lb8slKlLqU7Fezmgp+usxTVutarXaaqXp42/PUpaQqH1CjewIUjqZm6d0bZfTSp8944iKlETlTNGX622/NenjjV9RA7a2yBnB1xQFV2G89lVkSlQUpLTBRWr5rRXvPYuDd3FPRc4U/WUHUCfqk2eBXVD0SVTWx8SfPYbV9MWzxC65LXKm6KoR7hGstv74ltk1F4ecE5Wzk6lU9kWQEkScm3bcPjXAwTZpjvJlbwhXQXz2LnZKGaNemILJhXc11jwdiGH12r/cOrz1O0wyQjNOFG2a+eGAYDUljMNxIfz4rUU47URrhTeHBKup7/h0XU/YDnL8whSv4e/Dht5djT22OT5NsaNRpDnmcIZ1b8PKCFYJM/9arF4KD7dDQpbOvbPUWmRSpM909o5oPgz9y22blXT7DukWH4iUPN0/pFk9Dx/9y52QNvVYM4gExdkBw/TVu1jYYO6Sox+coiJh0e55v2LL8xXRqqCzoJUDFMWZ9X6/CeGbb5l0Qdyp6zYqAna/AK8iWPUd0VBT9IM27H2i7BF4362YLjzLw488ln7F4P41iuLOppj+9SyNIUU18JZJeovaEcX03bMslhTV4JOfsl/npWo6tlpMKUoRtJYJSLuuZm/VzZRiK2394/ucYEtRzdhSJBR48/6Yau7fvIejzIL2jA31ZXHx+vd1QRhtYy/KsFnxEhUj7IDcD7ZBz8eECa4/MSSGN5iiTKu1zIlKIJCgvQ4cc9v8NpiijD+01aMWEkWMIOvPbCvGjyIIcu+YsBSjf4gUMEU1OMMYuy2iYIC7WwO4ZswPkTBFg9wbd5gmKl6igqAKlD+4DTqeYoQU1eBW9ljdDQoGvOsAX4mzGF+vRkpRDewQSLIIiigYuIPDz4LCRxFSNHzDmCZI2I/l8TERoeXHVQTBLErX1kuwvwmnGD1FNfgldzjFggQrlTYoqlEYRTNFszgpqunAmoZKQpywAoJxT47AZRvltP56HJCiKvbRGKjIftqRKZhFF7TOF1IXvFEsNEU1bTjlS51xKhYfwTWoyHi4GghGGeDv4jKUIm4iKOqgKHvYz6SIgkVFcEddeE7khMdEYSmqmfNH8aQ0Kao5xyhSFcvTBnPGvIlapjaYM+b87BFSNNCQ3pUhX6KaESz4VMgtYMbfP4plFbRm/H1Pqj4praD9YYCXYpkFV4pNsmJ5U1QD0+HuxwGAYNGn6+4APkNxPfu/3CmqmcK2a6f9YZiiJTjlegddY0Nq5jJENTvjEpxxvYepsabRcBiPGFMiZWyDOcahmI3jpzfb2z1xOdtgzvZ0eO34GHaa2xEsZxvM+VJ0ecnY2lKu+mWO4JqNotNpo6eb34V5UjIE7X5NZYly2/Xe+w8Jrrid9PtXjm+u3aSmlGqU5T87QtAeTianRR7uIwiCIAiCIAiCIAiCIAiCIAiCIAiCIAiCIAiCIAiCIPxf+BcQAlmXNqayRwAAAABJRU5ErkJggg==;" vertex="1" parent="1">
          <mxGeometry x="380" y="260" width="50" height="50" as="geometry" />
        </mxCell>
        <mxCell id="xQ7LYl9tW4PWdYDbD922-8" value="" style="shape=image;verticalLabelPosition=bottom;labelBackgroundColor=default;verticalAlign=top;aspect=fixed;imageAspect=0;image=data:image/png,iVBORw0KGgoAAAANSUhEUgAAAOEAAADhCAMAAAAJbSJIAAAApVBMVEX///84mcZ9ugAnlMMtlcTA3et/udkcksMolcSDu9p1tgB5uAAzmca32On1+vzr9flJocrT5/Hl8fdUps6Vxt7H4e2oz+Q9ncieyuFustNLosvd7fV3t9b7/fSDvdmjzVmBvQD0+eqQwt2w1Odhq89us9PQ5PHR5bKKwTCCvBa72Orl8dCYyEbt9d6mz2W114He7sbK4qKSxDy314O/3JKr0XC92pc/9UdzAAAHA0lEQVR4nO2dbVviOhCGKQTB0gUBeRNxFd1FWdeX1bP//6cdMBbJE+AimUnac525vzfNzUzSNElDpSIIgiAIgiAIgiAIgiAIgiAIgiAIgiAIgiAIgiAIgiAUyWA47BZdh5B0zxpN1bjrOF9Yn58O3a+Kz6CZrFFJ2+26zl1DqVp2G6ZWjHwKrhR/OF3XHqmPyxrjQBXjot5IcppTlwtP1OdljfNQdWNh+SWY1FwSrpNtrmvMg1WPzrL2JZgol3wbbF1ZYsXbrQiuYlh3uLS+/dvUroJVkYYpmIxcOtNp0/hxToNVksLQFGwMnK6+U4biZaBKUhjWTEGXHK0YXc2H4kmYWhI4NyPYdBRcKY7MKE5C1JLA2BR06mU+6ZVa8ZyWopreyChE3XHXksDcFPSJ4BpIVHXnOLQNxxW1DeZ0zsqpeMWRoprOhanYL4XiCZ+gHcUyKE542mBOG6J4Ufg78Q9T0L8N5rT7puJZwYoTYzxJTFENKo4KVTRHkyyCdqIWqWj+2gwpqsEoJj2ect0rAhGkdjL7Sy5IEavBk6K7y06c5ny4KnERKoIf9AtXhEczWxvcMDHKz5qxZ9FheMWaop9M4CeMq4gRDCC4ehSZg4nsZ4B77KOTBU5RzSWMl9xmfij0zE6Au5P5AhQdJ7f8mZrv4mFSVHPJO6w/kl4WTbAYxal5z1BtMAdfr78FvduaLkQw+K+KiqEXGLuZaRg0RTUwC+S0pOXOT/NucdoFRnEY8F6DuG0wByYrAy4TD8wX+hgpqoElg2CK9VpBgpZiLcxK+BLaYKQU1eCyQYhl4m8QwUjji5xxcMXb4lJUg6tb3IqwwBtf0FbkXexHwahtcFMJGKNyroSPi05RTTjFkghaqaS4FOdFDNV2AxtaFM9K+LyYodpu4JnFshKOguQUnc1mhKu/QRTpy8RXrIKzxff7h4eH++8Lb8slKlLqU7Fezmgp+usxTVutarXaaqXp42/PUpaQqH1CjewIUjqZm6d0bZfTSp8944iKlETlTNGX622/NenjjV9RA7a2yBnB1xQFV2G89lVkSlQUpLTBRWr5rRXvPYuDd3FPRc4U/WUHUCfqk2eBXVD0SVTWx8SfPYbV9MWzxC65LXKm6KoR7hGstv74ltk1F4ecE5Wzk6lU9kWQEkScm3bcPjXAwTZpjvJlbwhXQXz2LnZKGaNemILJhXc11jwdiGH12r/cOrz1O0wyQjNOFG2a+eGAYDUljMNxIfz4rUU47URrhTeHBKup7/h0XU/YDnL8whSv4e/Dht5djT22OT5NsaNRpDnmcIZ1b8PKCFYJM/9arF4KD7dDQpbOvbPUWmRSpM909o5oPgz9y22blXT7DukWH4iUPN0/pFk9Dx/9y52QNvVYM4gExdkBw/TVu1jYYO6Sox+coiJh0e55v2LL8xXRqqCzoJUDFMWZ9X6/CeGbb5l0Qdyp6zYqAna/AK8iWPUd0VBT9IM27H2i7BF4362YLjzLw488ln7F4P41iuLOppj+9SyNIUU18JZJeovaEcX03bMslhTV4JOfsl/npWo6tlpMKUoRtJYJSLuuZm/VzZRiK2394/ucYEtRzdhSJBR48/6Yau7fvIejzIL2jA31ZXHx+vd1QRhtYy/KsFnxEhUj7IDcD7ZBz8eECa4/MSSGN5iiTKu1zIlKIJCgvQ4cc9v8NpiijD+01aMWEkWMIOvPbCvGjyIIcu+YsBSjf4gUMEU1OMMYuy2iYIC7WwO4ZswPkTBFg9wbd5gmKl6igqAKlD+4DTqeYoQU1eBW9ljdDQoGvOsAX4mzGF+vRkpRDewQSLIIiigYuIPDz4LCRxFSNHzDmCZI2I/l8TERoeXHVQTBLErX1kuwvwmnGD1FNfgldzjFggQrlTYoqlEYRTNFszgpqunAmoZKQpywAoJxT47AZRvltP56HJCiKvbRGKjIftqRKZhFF7TOF1IXvFEsNEU1bTjlS51xKhYfwTWoyHi4GghGGeDv4jKUIm4iKOqgKHvYz6SIgkVFcEddeE7khMdEYSmqmfNH8aQ0Kao5xyhSFcvTBnPGvIlapjaYM+b87BFSNNCQ3pUhX6KaESz4VMgtYMbfP4plFbRm/H1Pqj4praD9YYCXYpkFV4pNsmJ5U1QD0+HuxwGAYNGn6+4APkNxPfu/3CmqmcK2a6f9YZiiJTjlegddY0Nq5jJENTvjEpxxvYepsabRcBiPGFMiZWyDOcahmI3jpzfb2z1xOdtgzvZ0eO34GHaa2xEsZxvM+VJ0ecnY2lKu+mWO4JqNotNpo6eb34V5UjIE7X5NZYly2/Xe+w8Jrrid9PtXjm+u3aSmlGqU5T87QtAeTianRR7uIwiCIAiCIAiCIAiCIAiCIAiCIAiCIAiCIAiCIAiCIPxf+BcQAlmXNqayRwAAAABJRU5ErkJggg==;" vertex="1" parent="1">
          <mxGeometry x="690" y="230" width="50" height="50" as="geometry" />
        </mxCell>
        <mxCell id="xQ7LYl9tW4PWdYDbD922-32" style="edgeStyle=orthogonalEdgeStyle;rounded=0;orthogonalLoop=1;jettySize=auto;html=1;entryX=0.27;entryY=1;entryDx=0;entryDy=0;entryPerimeter=0;" edge="1" parent="1" source="xQ7LYl9tW4PWdYDbD922-10" target="xQ7LYl9tW4PWdYDbD922-25">
          <mxGeometry relative="1" as="geometry">
            <mxPoint x="925" y="300" as="targetPoint" />
          </mxGeometry>
        </mxCell>
        <mxCell id="xQ7LYl9tW4PWdYDbD922-10" value="" style="aspect=fixed;html=1;points=[];align=center;image;fontSize=12;image=img/lib/azure2/networking/Route_Tables.svg;" vertex="1" parent="1">
          <mxGeometry x="389.52" y="350" width="30.97" height="30" as="geometry" />
        </mxCell>
        <mxCell id="xQ7LYl9tW4PWdYDbD922-14" value="Application &lt;br&gt;(10.103.166.64/26) = 64 IPs" style="text;html=1;strokeColor=none;fillColor=none;align=center;verticalAlign=middle;whiteSpace=wrap;rounded=0;" vertex="1" parent="1">
          <mxGeometry x="10" y="280" width="210" height="30" as="geometry" />
        </mxCell>
        <mxCell id="xQ7LYl9tW4PWdYDbD922-15" value="DMZ&lt;br&gt;(10.103.166.0/26) = 64 IPs" style="text;html=1;strokeColor=none;fillColor=none;align=center;verticalAlign=middle;whiteSpace=wrap;rounded=0;" vertex="1" parent="1">
          <mxGeometry x="610" y="270" width="210" height="30" as="geometry" />
        </mxCell>
        <mxCell id="xQ7LYl9tW4PWdYDbD922-16" value="Kubernetes &lt;br&gt;(10.103.167.0/24) = 256 IPs" style="text;html=1;strokeColor=none;fillColor=none;align=center;verticalAlign=middle;whiteSpace=wrap;rounded=0;" vertex="1" parent="1">
          <mxGeometry x="310" y="320" width="210" height="10" as="geometry" />
        </mxCell>
        <mxCell id="xQ7LYl9tW4PWdYDbD922-25" value="" style="verticalLabelPosition=bottom;html=1;verticalAlign=top;align=center;strokeColor=#82b366;fillColor=#7a82f5;shape=mxgraph.azure.virtual_network;pointerEvents=1;" vertex="1" parent="1">
          <mxGeometry x="910" y="240" width="50" height="27.500000000000004" as="geometry" />
        </mxCell>
        <mxCell id="xQ7LYl9tW4PWdYDbD922-26" value="MIC-Platform- VNET" style="text;html=1;strokeColor=none;fillColor=none;align=center;verticalAlign=middle;whiteSpace=wrap;rounded=0;" vertex="1" parent="1">
          <mxGeometry x="830" y="210" width="210" height="30" as="geometry" />
        </mxCell>
      </root>
    </mxGraphModel>
  </diagram>
</mxfile>
